999
Instant Render sample floor plan: one 5m x 4m room (units = millimeters)
0
SECTION
2
HEADER
9
$ACADVER
1
AC1027
9
$INSUNITS
70
4
0
ENDSEC
0
SECTION
2
TABLES
0
TABLE
2
LTYPE
70
1
0
LTYPE
2
CONTINUOUS
70
0
3
Solid line
72
65
73
0
40
0.0
0
ENDTAB
0
TABLE
2
LAYER
70
5
0
LAYER
2
0
70
0
62
7
6
CONTINUOUS
0
LAYER
2
WALL
70
0
62
7
6
CONTINUOUS
0
LAYER
2
DOOR
70
0
62
3
6
CONTINUOUS
0
LAYER
2
WINDOW
70
0
62
5
6
CONTINUOUS
0
LAYER
2
ROOM
70
0
62
8
6
CONTINUOUS
0
LAYER
2
TEXT
70
0
62
2
6
CONTINUOUS
0
ENDTAB
0
ENDSEC
0
SECTION
2
ENTITIES
0
LINE
8
WALL
10
0.0
20
0.0
30
0.0
11
5000.0
21
0.0
31
0.0
0
LINE
8
WALL
10
5000.0
20
0.0
30
0.0
11
5000.0
21
4000.0
31
0.0
0
LINE
8
WALL
10
5000.0
20
4000.0
30
0.0
11
0.0
21
4000.0
31
0.0
0
LINE
8
WALL
10
0.0
20
4000.0
30
0.0
11
0.0
21
0.0
31
0.0
0
LWPOLYLINE
8
ROOM
90
4
70
1
10
0.0
20
0.0
10
5000.0
20
0.0
10
5000.0
20
4000.0
10
0.0
20
4000.0
0
ARC
8
DOOR
10
1000.0
20
0.0
30
0.0
40
900.0
50
0.0
51
90.0
0
LWPOLYLINE
8
WINDOW
90
4
70
1
10
2000.0
20
3950.0
10
3200.0
20
3950.0
10
3200.0
20
4050.0
10
2000.0
20
4050.0
0
TEXT
8
TEXT
10
2100.0
20
1900.0
30
0.0
40
200.0
1
LIVING
0
ENDSEC
0
EOF
